<svg xmlns="http://www.w3.org/2000/svg" width="24" height="20" viewBox="0 0 24 20">
    <g transform="translate(-2 -7)">
    <path fill="var(--primary)" d="M23.6,7H4.4A2.4,2.4,0,0,0,2,9.4V24.6A2.4,2.4,0,0,0,4.4,27H23.6A2.4,2.4,0,0,0,26,24.6V9.4A2.4,2.4,0,0,0,23.6,7ZM9.517,18.044l-4,5.2a.4.4,0,1,1-.634-.487l4-5.2a.4.4,0,1,1,.634.487Zm13.526,5.274a.4.4,0,0,1-.56-.074l-4-5.2a.4.4,0,1,1,.634-.487l4,5.2A.4.4,0,0,1,23.044,23.317Zm.032-12.828-8.8,8.4a.4.4,0,0,1-.552,0l-8.8-8.4a.4.4,0,1,1,.552-.579L14,18.047,22.524,9.91a.4.4,0,0,1,.552.579Z" transform="translate(0 0)"/></g>
</svg>
