<svg xmlns="http://www.w3.org/2000/svg" width="160" height="55.827" viewBox="0 0 160 55.827"><defs><style>.a{fill:#fff;}</style></defs><path class="a" d="M-64.416-32.038h5.891v25.95h15.383V-.852H-64.416ZM-25.188-.01A15.72,15.72,0,0,1-31.546-1.3a16.183,16.183,0,0,1-5.143-3.53,16.664,16.664,0,0,1-3.46-5.237,16.309,16.309,0,0,1-1.262-6.406,16.309,16.309,0,0,1,1.262-6.406,16.585,16.585,0,0,1,3.437-5.213,16.027,16.027,0,0,1,5.143-3.507,15.885,15.885,0,0,1,6.382-1.286,15.72,15.72,0,0,1,6.359,1.286,16.374,16.374,0,0,1,5.143,3.507,16.384,16.384,0,0,1,3.46,5.213,16.309,16.309,0,0,1,1.262,6.406,16.309,16.309,0,0,1-1.262,6.406,16.664,16.664,0,0,1-3.46,5.237A16.183,16.183,0,0,1-18.829-1.3,15.72,15.72,0,0,1-25.188-.01Zm0-5.564a9.576,9.576,0,0,0,4.161-.888,9.551,9.551,0,0,0,3.179-2.408,10.8,10.8,0,0,0,2.011-3.53,12.684,12.684,0,0,0,.7-4.208,12.621,12.621,0,0,0-.7-4.231,10.573,10.573,0,0,0-2.011-3.483,9.426,9.426,0,0,0-3.179-2.361,9.8,9.8,0,0,0-4.161-.865,9.753,9.753,0,0,0-4.185.865,9.49,9.49,0,0,0-3.156,2.361,10.573,10.573,0,0,0-2.011,3.483,12.621,12.621,0,0,0-.7,4.231,12.684,12.684,0,0,0,.7,4.208,10.8,10.8,0,0,0,2.011,3.53,9.62,9.62,0,0,0,3.156,2.408A9.535,9.535,0,0,0-25.188-5.574ZM12.778-17.357H23.953v12.9a16.6,16.6,0,0,1-4.816,3.039A19.261,19.261,0,0,1,11.469-.1,17.6,17.6,0,0,1,4.62-1.366,15.179,15.179,0,0,1-.5-4.8a14.9,14.9,0,0,1-3.226-5.12,17.714,17.714,0,0,1-1.122-6.359A17.448,17.448,0,0,1-3.68-22.687a15.975,15.975,0,0,1,3.3-5.237A15.68,15.68,0,0,1,4.69-31.477a15.825,15.825,0,0,1,6.5-1.309A16.945,16.945,0,0,1,15.4-32.3a15.4,15.4,0,0,1,3.483,1.333,13.007,13.007,0,0,1,2.782,1.987,16.742,16.742,0,0,1,2.151,2.455l-4.161,3.694a12.89,12.89,0,0,0-3.483-3.46,8.868,8.868,0,0,0-4.98-1.309,9.074,9.074,0,0,0-4.115.912,9.717,9.717,0,0,0-3.109,2.431A10.65,10.65,0,0,0,2-20.7a13.439,13.439,0,0,0-.678,4.278,11.939,11.939,0,0,0,.818,4.535,10.53,10.53,0,0,0,2.244,3.46,9.789,9.789,0,0,0,3.32,2.221,10.494,10.494,0,0,0,4,.771,9.732,9.732,0,0,0,6.639-2.057v-4.863H12.778ZM45.181-.01A15.72,15.72,0,0,1,38.822-1.3a16.183,16.183,0,0,1-5.143-3.53,16.664,16.664,0,0,1-3.46-5.237,16.309,16.309,0,0,1-1.262-6.406,16.309,16.309,0,0,1,1.262-6.406,16.585,16.585,0,0,1,3.437-5.213A16.027,16.027,0,0,1,38.8-31.594a15.885,15.885,0,0,1,6.382-1.286,15.72,15.72,0,0,1,6.359,1.286,16.375,16.375,0,0,1,5.143,3.507,16.384,16.384,0,0,1,3.46,5.213,16.309,16.309,0,0,1,1.262,6.406,16.309,16.309,0,0,1-1.262,6.406,16.664,16.664,0,0,1-3.46,5.237A16.184,16.184,0,0,1,51.539-1.3,15.72,15.72,0,0,1,45.181-.01Zm0-5.564a9.576,9.576,0,0,0,4.161-.888,9.551,9.551,0,0,0,3.179-2.408,10.8,10.8,0,0,0,2.011-3.53,12.684,12.684,0,0,0,.7-4.208,12.621,12.621,0,0,0-.7-4.231,10.573,10.573,0,0,0-2.011-3.483,9.426,9.426,0,0,0-3.179-2.361,9.8,9.8,0,0,0-4.161-.865A9.753,9.753,0,0,0,41-26.685a9.49,9.49,0,0,0-3.156,2.361,10.573,10.573,0,0,0-2.011,3.483,12.621,12.621,0,0,0-.7,4.231,12.684,12.684,0,0,0,.7,4.208,10.8,10.8,0,0,0,2.011,3.53A9.62,9.62,0,0,0,41-6.463,9.534,9.534,0,0,0,45.181-5.574ZM-81.564,6.933h5a6.167,6.167,0,0,1,2.677.5,4.8,4.8,0,0,1,1.648,1.239,4.259,4.259,0,0,1,.842,1.578,5.8,5.8,0,0,1,.234,1.543,4.971,4.971,0,0,1-.468,2.244,4.491,4.491,0,0,1-1.216,1.531,4.962,4.962,0,0,1-1.683.877,6.4,6.4,0,0,1-1.847.281h-2.361v5.8h-2.829Zm4.956,7.317a2.441,2.441,0,0,0,1.788-.655,2.286,2.286,0,0,0,.666-1.707,2.4,2.4,0,0,0-.7-1.788,2.4,2.4,0,0,0-1.753-.69h-2.127V14.25Zm8.089-7.317h2.946V19.908h7.691v2.618H-68.519Zm17.767,0h3.039L-41.8,22.526h-3.273l-1.356-3.951h-5.8l-1.356,3.951h-3.086Zm3.483,9.211-2.057-6.055-2.081,6.055Zm20.573,3.53a5.772,5.772,0,0,1-.97,1.1,8.242,8.242,0,0,1-1.461,1.04,8.955,8.955,0,0,1-1.847.783,7.313,7.313,0,0,1-2.127.3,8.2,8.2,0,0,1-3.2-.608,7.444,7.444,0,0,1-2.5-1.695,7.745,7.745,0,0,1-1.636-2.56,8.671,8.671,0,0,1-.584-3.226,8.724,8.724,0,0,1,.584-3.2A7.988,7.988,0,0,1-38.794,8.99a7.84,7.84,0,0,1,2.537-1.777,7.912,7.912,0,0,1,3.25-.655,8.472,8.472,0,0,1,2.1.245,7.7,7.7,0,0,1,1.742.666,6.5,6.5,0,0,1,1.391.994A8.37,8.37,0,0,1-26.7,9.692l-2.081,1.847a6.445,6.445,0,0,0-1.742-1.73,4.434,4.434,0,0,0-2.49-.655,4.537,4.537,0,0,0-2.057.456,4.859,4.859,0,0,0-1.555,1.216A5.325,5.325,0,0,0-37.6,12.6a6.72,6.72,0,0,0-.339,2.139,6.4,6.4,0,0,0,.339,2.1,5.1,5.1,0,0,0,.97,1.707A4.64,4.64,0,0,0-35.123,19.7a4.508,4.508,0,0,0,1.975.421,5.551,5.551,0,0,0,1.718-.234,4.641,4.641,0,0,0,1.216-.584,4.668,4.668,0,0,0,.842-.736q.339-.386.62-.666Zm2.174-12.741h10.1V9.528h-7.154V13.2h5.26v2.618h-5.26v4.068h7.691v2.642H-24.521Zm13.279,0H-8.3V13.2H-.559V6.933H2.387V22.526H-.559v-6.71H-8.3v6.71h-2.946ZM13.164,22.947A7.86,7.86,0,0,1,9.985,22.3a8.092,8.092,0,0,1-2.572-1.765,8.332,8.332,0,0,1-1.73-2.618,8.441,8.441,0,0,1,0-6.406A8.293,8.293,0,0,1,7.4,8.908a8.021,8.021,0,0,1,5.763-2.4,7.86,7.86,0,0,1,3.179.643,8.305,8.305,0,0,1,4.3,10.766,8.332,8.332,0,0,1-1.73,2.618A8.092,8.092,0,0,1,16.344,22.3,7.86,7.86,0,0,1,13.164,22.947Zm0-2.782a4.745,4.745,0,0,0,3.67-1.648,5.4,5.4,0,0,0,1.005-1.765,6.522,6.522,0,0,0,0-4.22,5.286,5.286,0,0,0-1.005-1.742,4.713,4.713,0,0,0-1.59-1.181,4.9,4.9,0,0,0-2.081-.432,4.876,4.876,0,0,0-2.092.432A4.745,4.745,0,0,0,9.494,10.79a5.286,5.286,0,0,0-1.005,1.742,6.523,6.523,0,0,0,0,4.22,5.4,5.4,0,0,0,1.005,1.765,4.7,4.7,0,0,0,3.67,1.648ZM23.942,6.933h2.946V19.908h7.691v2.618H23.942Zm12.928,0h5.821a11.328,11.328,0,0,1,3.343.468,7.1,7.1,0,0,1,2.618,1.426,6.379,6.379,0,0,1,1.707,2.455,9.348,9.348,0,0,1,.608,3.53,8.487,8.487,0,0,1-.62,3.378,6.628,6.628,0,0,1-1.73,2.408,7.262,7.262,0,0,1-2.63,1.449,10.989,10.989,0,0,1-3.32.479h-5.8ZM42.41,19.908a5.817,5.817,0,0,0,4.068-1.286,4.852,4.852,0,0,0,1.4-3.764,5.549,5.549,0,0,0-1.3-3.881A5.4,5.4,0,0,0,42.41,9.551H39.815V19.908ZM53.632,6.933h10.1V9.528H56.577V13.2h5.26v2.618h-5.26v4.068h7.691v2.642H53.632Zm13.279,0h5.167a6.3,6.3,0,0,1,2.5.444,4.776,4.776,0,0,1,1.66,1.134,4.432,4.432,0,0,1,.923,1.508,4.654,4.654,0,0,1,.292,1.566,5.192,5.192,0,0,1-.643,2.607A4.573,4.573,0,0,1,74.836,16l3.6,6.523h-3.32L71.96,16.378H69.739v6.148H66.911Zm5.19,7.013a2.283,2.283,0,0,0,1.742-.655,2.228,2.228,0,0,0,.62-1.59,2.172,2.172,0,0,0-.655-1.636A2.356,2.356,0,0,0,72.1,9.434H69.739v4.512Z" transform="translate(81.564 32.88)"/></svg>